<svg id="Layer_1" data-name="Layer 1" xmlns="http://www.w3.org/2000/svg" viewBox="0 0 128 128"><title>ECONOMY</title><rect x="11" y="24.915" width="106" height="50.25" style="fill:#00b5bc"/><path d="M110.6,62.52V37.559a6.49,6.49,0,0,1-6.49-6.49H23.893a6.49,6.49,0,0,1-6.49,6.49V62.52a6.49,6.49,0,0,1,6.49,6.49h80.215A6.49,6.49,0,0,1,110.6,62.52Z" style="fill:#f6ebd8"/><ellipse cx="64" cy="50.039" rx="13" ry="18.97" style="fill:#ffd322"/><rect x="64" y="24.915" width="53" height="50.25" style="fill:#0b789c"/><path d="M104.108,31.069H64V69.01h40.107a6.49,6.49,0,0,1,6.49-6.49V37.559A6.49,6.49,0,0,1,104.108,31.069Z" style="fill:#ecd5af"/><path d="M77,50.04c0-10.477-5.82-18.97-13-18.97V69.01C71.18,69.01,77,60.516,77,50.04Z" style="fill:#ff9e21"/><path d="M65.75,48.546V43.627a2.65,2.65,0,0,1,.917,2,1.75,1.75,0,0,0,3.5,0,6.176,6.176,0,0,0-4.417-5.91V39.2a1.75,1.75,0,0,0-3.5,0v.517a6.162,6.162,0,0,0,0,11.82v4.92a2.65,2.65,0,0,1-.917-2,1.75,1.75,0,0,0-3.5,0,6.175,6.175,0,0,0,4.417,5.91v.516a1.75,1.75,0,0,0,3.5,0v-.516a6.163,6.163,0,0,0,0-11.821Zm-4.417-2.923a2.65,2.65,0,0,1,.917-2v3.991A2.649,2.649,0,0,1,61.334,45.623ZM65.75,56.453V52.46a2.632,2.632,0,0,1,0,3.993Z" style="fill:#724435"/><circle cx="98.276" cy="75.165" r="18.724" style="fill:#9f5f4b"/><path d="M99.923,56.524V93.8a18.712,18.712,0,0,0,0-37.281Z" style="fill:#724435"/><circle cx="93.776" cy="82.612" r="18.724" style="fill:#ffd322"/><path d="M112.5,82.612A18.724,18.724,0,0,0,93.776,63.888v37.447A18.724,18.724,0,0,0,112.5,82.612Z" style="fill:#ff9e21"/><path d="M95.526,81.118V76.2a2.65,2.65,0,0,1,.917,2,1.75,1.75,0,0,0,3.5,0,6.176,6.176,0,0,0-4.417-5.91v-.517a1.75,1.75,0,0,0-3.5,0v.517a6.162,6.162,0,0,0,0,11.82v4.92a2.65,2.65,0,0,1-.917-2,1.75,1.75,0,0,0-3.5,0,6.176,6.176,0,0,0,4.417,5.91v.516a1.75,1.75,0,0,0,3.5,0v-.516a6.163,6.163,0,0,0,0-11.821ZM91.109,78.2a2.65,2.65,0,0,1,.917-2v3.992A2.649,2.649,0,0,1,91.109,78.2Zm4.417,10.829V85.032a2.632,2.632,0,0,1,0,3.993Z" style="fill:#724435"/><path d="M118.75,24.914a1.75,1.75,0,0,0-1.75-1.75H103.125a1.75,1.75,0,0,0,0,3.5H115.25V63.728A20.462,20.462,0,0,0,79.4,67.26H72.19c3.952-3.721,6.56-10.05,6.56-17.221s-2.608-13.5-6.56-17.22h30.355a8.262,8.262,0,0,0,6.3,6.3v12.5a1.75,1.75,0,0,0,3.5,0V37.559a1.75,1.75,0,0,0-1.75-1.75,4.745,4.745,0,0,1-4.739-4.739,1.75,1.75,0,0,0-1.75-1.75H23.893a1.75,1.75,0,0,0-1.75,1.75,4.745,4.745,0,0,1-4.74,4.739,1.75,1.75,0,0,0-1.75,1.75V62.52a1.75,1.75,0,0,0,1.75,1.75,4.745,4.745,0,0,1,4.74,4.74,1.75,1.75,0,0,0,3.5,0,8.253,8.253,0,0,0-6.49-8.053V39.122a8.267,8.267,0,0,0,6.3-6.3H55.81c-3.952,3.721-6.56,10.049-6.56,17.22s2.608,13.5,6.56,17.221H30.5a1.75,1.75,0,0,0,0,3.5H77.113a20.485,20.485,0,0,0-1.6,2.654H12.75V26.664H87.5a1.75,1.75,0,0,0,0-3.5H11a1.75,1.75,0,0,0-1.75,1.75v50.25A1.75,1.75,0,0,0,11,76.914H74.126a20.381,20.381,0,0,0-.823,5.7,1.75,1.75,0,0,0,3.5,0,16.962,16.962,0,1,1,1.764,7.544,1.75,1.75,0,0,0-3.135,1.557,20.462,20.462,0,0,0,37.7-2.48,20.336,20.336,0,0,0,5.62-14.068Zm-66,25.125c0-9.5,5.047-17.22,11.25-17.22s11.25,7.725,11.25,17.22S70.2,67.26,64,67.26,52.75,59.534,52.75,50.039Zm61.423,31.048A20.436,20.436,0,0,0,85.64,63.834a16.963,16.963,0,0,1,28.532,17.252Z" style="fill:#500000"/><path d="M94.776,26.664h1.1a1.75,1.75,0,0,0,0-3.5h-1.1a1.75,1.75,0,0,0,0,3.5Z" style="fill:#500000"/><path d="M66.667,45.623a1.75,1.75,0,0,0,3.5,0,6.176,6.176,0,0,0-4.417-5.91V39.2a1.75,1.75,0,0,0-3.5,0v.517a6.162,6.162,0,0,0,0,11.82v4.92a2.65,2.65,0,0,1-.917-2,1.75,1.75,0,0,0-3.5,0,6.175,6.175,0,0,0,4.417,5.91v.516a1.75,1.75,0,0,0,3.5,0v-.516a6.163,6.163,0,0,0,0-11.821V43.627A2.65,2.65,0,0,1,66.667,45.623Zm-5.333,0a2.65,2.65,0,0,1,.917-2v3.991A2.649,2.649,0,0,1,61.334,45.623Zm5.333,8.833a2.65,2.65,0,0,1-.917,2V52.46A2.65,2.65,0,0,1,66.667,54.456Z" style="fill:#500000"/><path d="M91.109,87.028a1.75,1.75,0,0,0-3.5,0,6.176,6.176,0,0,0,4.417,5.91v.516a1.75,1.75,0,0,0,3.5,0v-.516a6.163,6.163,0,0,0,0-11.821V76.2a2.65,2.65,0,0,1,.917,2,1.75,1.75,0,0,0,3.5,0,6.176,6.176,0,0,0-4.417-5.91v-.517a1.75,1.75,0,0,0-3.5,0v.517a6.162,6.162,0,0,0,0,11.82v4.92A2.65,2.65,0,0,1,91.109,87.028Zm5.334,0a2.65,2.65,0,0,1-.917,2V85.032A2.65,2.65,0,0,1,96.443,87.028ZM91.109,78.2a2.65,2.65,0,0,1,.917-2v3.992A2.649,2.649,0,0,1,91.109,78.2Z" style="fill:#500000"/></svg>